<?xml version='1.0' encoding='UTF-8'?>
<svg width="45mm" height="45mm" version="1.1" viewBox="0 0 45 45" xmlns="http://www.w3.org/2000/svg"><path d="M2,2H3V3H2zM3,2H4V3H3zM4,2H5V3H4zM5,2H6V3H5zM6,2H7V3H6zM7,2H8V3H7zM8,2H9V3H8zM12,2H13V3H12zM14,2H15V3H14zM17,2H18V3H17zM18,2H19V3H18zM20,2H21V3H20zM21,2H22V3H21zM23,2H24V3H23zM24,2H25V3H24zM25,2H26V3H25zM28,2H29V3H28zM29,2H30V3H29zM31,2H32V3H31zM32,2H33V3H32zM33,2H34V3H33zM36,2H37V3H36zM37,2H38V3H37zM38,2H39V3H38zM39,2H40V3H39zM40,2H41V3H40zM41,2H42V3H41zM42,2H43V3H42zM2,3H3V4H2zM8,3H9V4H8zM11,3H12V4H11zM12,3H13V4H12zM14,3H15V4H14zM19,3H20V4H19zM22,3H23V4H22zM25,3H26V4H25zM29,3H30V4H29zM32,3H33V4H32zM36,3H37V4H36zM42,3H43V4H42zM2,4H3V5H2zM4,4H5V5H4zM5,4H6V5H5zM6,4H7V5H6zM8,4H9V5H8zM11,4H12V5H11zM12,4H13V5H12zM13,4H14V5H13zM14,4H15V5H14zM17,4H18V5H17zM19,4H20V5H19zM23,4H24V5H23zM24,4H25V5H24zM25,4H26V5H25zM28,4H29V5H28zM29,4H30V5H29zM30,4H31V5H30zM32,4H33V5H32zM33,4H34V5H33zM34,4H35V5H34zM36,4H37V5H36zM38,4H39V5H38zM39,4H40V5H39zM40,4H41V5H40zM42,4H43V5H42zM2,5H3V6H2zM4,5H5V6H4zM5,5H6V6H5zM6,5H7V6H6zM8,5H9V6H8zM14,5H15V6H14zM16,5H17V6H16zM18,5H19V6H18zM19,5H20V6H19zM22,5H23V6H22zM23,5H24V6H23zM24,5H25V6H24zM25,5H26V6H25zM26,5H27V6H26zM27,5H28V6H27zM29,5H30V6H29zM31,5H32V6H31zM32,5H33V6H32zM33,5H34V6H33zM36,5H37V6H36zM38,5H39V6H38zM39,5H40V6H39zM40,5H41V6H40zM42,5H43V6H42zM2,6H3V7H2zM4,6H5V7H4zM5,6H6V7H5zM6,6H7V7H6zM8,6H9V7H8zM12,6H13V7H12zM13,6H14V7H13zM14,6H15V7H14zM17,6H18V7H17zM23,6H24V7H23zM25,6H26V7H25zM27,6H28V7H27zM29,6H30V7H29zM30,6H31V7H30zM32,6H33V7H32zM36,6H37V7H36zM38,6H39V7H38zM39,6H40V7H39zM40,6H41V7H40zM42,6H43V7H42zM2,7H3V8H2zM8,7H9V8H8zM10,7H11V8H10zM13,7H14V8H13zM17,7H18V8H17zM18,7H19V8H18zM19,7H20V8H19zM21,7H22V8H21zM22,7H23V8H22zM24,7H25V8H24zM26,7H27V8H26zM27,7H28V8H27zM28,7H29V8H28zM29,7H30V8H29zM30,7H31V8H30zM31,7H32V8H31zM32,7H33V8H32zM33,7H34V8H33zM36,7H37V8H36zM42,7H43V8H42zM2,8H3V9H2zM3,8H4V9H3zM4,8H5V9H4zM5,8H6V9H5zM6,8H7V9H6zM7,8H8V9H7zM8,8H9V9H8zM10,8H11V9H10zM12,8H13V9H12zM14,8H15V9H14zM16,8H17V9H16zM18,8H19V9H18zM20,8H21V9H20zM22,8H23V9H22zM24,8H25V9H24zM26,8H27V9H26zM28,8H29V9H28zM30,8H31V9H30zM32,8H33V9H32zM34,8H35V9H34zM36,8H37V9H36zM37,8H38V9H37zM38,8H39V9H38zM39,8H40V9H39zM40,8H41V9H40zM41,8H42V9H41zM42,8H43V9H42zM11,9H12V10H11zM12,9H13V10H12zM13,9H14V10H13zM14,9H15V10H14zM15,9H16V10H15zM17,9H18V10H17zM18,9H19V10H18zM19,9H20V10H19zM21,9H22V10H21zM23,9H24V10H23zM24,9H25V10H24zM25,9H26V10H25zM26,9H27V10H26zM28,9H29V10H28zM29,9H30V10H29zM31,9H32V10H31zM32,9H33V10H32zM33,9H34V10H33zM2,10H3V11H2zM5,10H6V11H5zM7,10H8V11H7zM8,10H9V11H8zM10,10H11V11H10zM11,10H12V11H11zM12,10H13V11H12zM13,10H14V11H13zM14,10H15V11H14zM23,10H24V11H23zM24,10H25V11H24zM25,10H26V11H25zM26,10H27V11H26zM27,10H28V11H27zM28,10H29V11H28zM29,10H30V11H29zM30,10H31V11H30zM34,10H35V11H34zM35,10H36V11H35zM37,10H38V11H37zM2,11H3V12H2zM3,11H4V12H3zM4,11H5V12H4zM5,11H6V12H5zM7,11H8V12H7zM10,11H11V12H10zM11,11H12V12H11zM12,11H13V12H12zM14,11H15V12H14zM16,11H17V12H16zM17,11H18V12H17zM18,11H19V12H18zM22,11H23V12H22zM23,11H24V12H23zM26,11H27V12H26zM27,11H28V12H27zM28,11H29V12H28zM30,11H31V12H30zM31,11H32V12H31zM32,11H33V12H32zM34,11H35V12H34zM35,11H36V12H35zM36,11H37V12H36zM37,11H38V12H37zM39,11H40V12H39zM40,11H41V12H40zM41,11H42V12H41zM42,11H43V12H42zM3,12H4V13H3zM4,12H5V13H4zM6,12H7V13H6zM7,12H8V13H7zM8,12H9V13H8zM9,12H10V13H9zM11,12H12V13H11zM14,12H15V13H14zM16,12H17V13H16zM18,12H19V13H18zM20,12H21V13H20zM21,12H22V13H21zM23,12H24V13H23zM24,12H25V13H24zM27,12H28V13H27zM28,12H29V13H28zM33,12H34V13H33zM39,12H40V13H39zM40,12H41V13H40zM41,12H42V13H41zM6,13H7V14H6zM7,13H8V14H7zM9,13H10V14H9zM10,13H11V14H10zM12,13H13V14H12zM14,13H15V14H14zM17,13H18V14H17zM23,13H24V14H23zM26,13H27V14H26zM27,13H28V14H27zM32,13H33V14H32zM40,13H41V14H40zM4,14H5V15H4zM5,14H6V15H5zM6,14H7V15H6zM8,14H9V15H8zM9,14H10V15H9zM10,14H11V15H10zM13,14H14V15H13zM15,14H16V15H15zM17,14H18V15H17zM19,14H20V15H19zM20,14H21V15H20zM21,14H22V15H21zM22,14H23V15H22zM23,14H24V15H23zM27,14H28V15H27zM30,14H31V15H30zM31,14H32V15H31zM33,14H34V15H33zM34,14H35V15H34zM35,14H36V15H35zM36,14H37V15H36zM39,14H40V15H39zM41,14H42V15H41zM3,15H4V16H3zM4,15H5V16H4zM5,15H6V16H5zM10,15H11V16H10zM11,15H12V16H11zM15,15H16V16H15zM17,15H18V16H17zM19,15H20V16H19zM22,15H23V16H22zM24,15H25V16H24zM25,15H26V16H25zM29,15H30V16H29zM31,15H32V16H31zM32,15H33V16H32zM35,15H36V16H35zM37,15H38V16H37zM39,15H40V16H39zM40,15H41V16H40zM4,16H5V17H4zM7,16H8V17H7zM8,16H9V17H8zM9,16H10V17H9zM10,16H11V17H10zM11,16H12V17H11zM12,16H13V17H12zM14,16H15V17H14zM15,16H16V17H15zM17,16H18V17H17zM18,16H19V17H18zM19,16H20V17H19zM21,16H22V17H21zM24,16H25V17H24zM25,16H26V17H25zM28,16H29V17H28zM29,16H30V17H29zM30,16H31V17H30zM31,16H32V17H31zM34,16H35V17H34zM36,16H37V17H36zM39,16H40V17H39zM40,16H41V17H40zM41,16H42V17H41zM42,16H43V17H42zM2,17H3V18H2zM3,17H4V18H3zM4,17H5V18H4zM5,17H6V18H5zM6,17H7V18H6zM7,17H8V18H7zM10,17H11V18H10zM11,17H12V18H11zM12,17H13V18H12zM13,17H14V18H13zM16,17H17V18H16zM18,17H19V18H18zM19,17H20V18H19zM22,17H23V18H22zM23,17H24V18H23zM25,17H26V18H25zM27,17H28V18H27zM28,17H29V18H28zM30,17H31V18H30zM31,17H32V18H31zM32,17H33V18H32zM34,17H35V18H34zM36,17H37V18H36zM3,18H4V19H3zM7,18H8V19H7zM8,18H9V19H8zM10,18H11V19H10zM13,18H14V19H13zM14,18H15V19H14zM15,18H16V19H15zM19,18H20V19H19zM22,18H23V19H22zM23,18H24V19H23zM28,18H29V19H28zM29,18H30V19H29zM31,18H32V19H31zM34,18H35V19H34zM37,18H38V19H37zM39,18H40V19H39zM5,19H6V20H5zM10,19H11V20H10zM11,19H12V20H11zM12,19H13V20H12zM13,19H14V20H13zM16,19H17V20H16zM18,19H19V20H18zM19,19H20V20H19zM23,19H24V20H23zM25,19H26V20H25zM26,19H27V20H26zM28,19H29V20H28zM30,19H31V20H30zM32,19H33V20H32zM36,19H37V20H36zM37,19H38V20H37zM39,19H40V20H39zM40,19H41V20H40zM41,19H42V20H41zM42,19H43V20H42zM3,20H4V21H3zM6,20H7V21H6zM8,20H9V21H8zM9,20H10V21H9zM12,20H13V21H12zM15,20H16V21H15zM17,20H18V21H17zM19,20H20V21H19zM22,20H23V21H22zM24,20H25V21H24zM27,20H28V21H27zM30,20H31V21H30zM32,20H33V21H32zM34,20H35V21H34zM35,20H36V21H35zM38,20H39V21H38zM39,20H40V21H39zM42,20H43V21H42zM3,21H4V22H3zM4,21H5V22H4zM5,21H6V22H5zM6,21H7V22H6zM10,21H11V22H10zM11,21H12V22H11zM12,21H13V22H12zM13,21H14V22H13zM16,21H17V22H16zM18,21H19V22H18zM21,21H22V22H21zM22,21H23V22H22zM23,21H24V22H23zM25,21H26V22H25zM27,21H28V22H27zM31,21H32V22H31zM32,21H33V22H32zM33,21H34V22H33zM34,21H35V22H34zM36,21H37V22H36zM37,21H38V22H37zM39,21H40V22H39zM2,22H3V23H2zM3,22H4V23H3zM5,22H6V23H5zM7,22H8V23H7zM8,22H9V23H8zM9,22H10V23H9zM11,22H12V23H11zM12,22H13V23H12zM13,22H14V23H13zM14,22H15V23H14zM15,22H16V23H15zM16,22H17V23H16zM18,22H19V23H18zM19,22H20V23H19zM22,22H23V23H22zM24,22H25V23H24zM26,22H27V23H26zM28,22H29V23H28zM29,22H30V23H29zM30,22H31V23H30zM31,22H32V23H31zM32,22H33V23H32zM33,22H34V23H33zM34,22H35V23H34zM35,22H36V23H35zM36,22H37V23H36zM37,22H38V23H37zM39,22H40V23H39zM40,22H41V23H40zM41,22H42V23H41zM42,22H43V23H42zM7,23H8V24H7zM9,23H10V24H9zM12,23H13V24H12zM13,23H14V24H13zM14,23H15V24H14zM16,23H17V24H16zM24,23H25V24H24zM26,23H27V24H26zM27,23H28V24H27zM31,23H32V24H31zM32,23H33V24H32zM34,23H35V24H34zM35,23H36V24H35zM36,23H37V24H36zM41,23H42V24H41zM42,23H43V24H42zM2,24H3V25H2zM4,24H5V25H4zM5,24H6V25H5zM6,24H7V25H6zM8,24H9V25H8zM9,24H10V25H9zM10,24H11V25H10zM12,24H13V25H12zM13,24H14V25H13zM15,24H16V25H15zM17,24H18V25H17zM18,24H19V25H18zM21,24H22V25H21zM23,24H24V25H23zM24,24H25V25H24zM28,24H29V25H28zM31,24H32V25H31zM33,24H34V25H33zM35,24H36V25H35zM36,24H37V25H36zM39,24H40V25H39zM40,24H41V25H40zM41,24H42V25H41zM5,25H6V26H5zM10,25H11V26H10zM13,25H14V26H13zM15,25H16V26H15zM21,25H22V26H21zM23,25H24V26H23zM27,25H28V26H27zM30,25H31V26H30zM32,25H33V26H32zM33,25H34V26H33zM34,25H35V26H34zM37,25H38V26H37zM38,25H39V26H38zM40,25H41V26H40zM41,25H42V26H41zM4,26H5V27H4zM5,26H6V27H5zM6,26H7V27H6zM8,26H9V27H8zM10,26H11V27H10zM11,26H12V27H11zM14,26H15V27H14zM19,26H20V27H19zM21,26H22V27H21zM22,26H23V27H22zM23,26H24V27H23zM25,26H26V27H25zM26,26H27V27H26zM27,26H28V27H27zM29,26H30V27H29zM30,26H31V27H30zM31,26H32V27H31zM34,26H35V27H34zM35,26H36V27H35zM36,26H37V27H36zM37,26H38V27H37zM39,26H40V27H39zM3,27H4V28H3zM4,27H5V28H4zM5,27H6V28H5zM10,27H11V28H10zM12,27H13V28H12zM14,27H15V28H14zM16,27H17V28H16zM17,27H18V28H17zM18,27H19V28H18zM21,27H22V28H21zM23,27H24V28H23zM24,27H25V28H24zM26,27H27V28H26zM31,27H32V28H31zM32,27H33V28H32zM33,27H34V28H33zM35,27H36V28H35zM39,27H40V28H39zM41,27H42V28H41zM6,28H7V29H6zM7,28H8V29H7zM8,28H9V29H8zM12,28H13V29H12zM15,28H16V29H15zM16,28H17V29H16zM17,28H18V29H17zM19,28H20V29H19zM22,28H23V29H22zM25,28H26V29H25zM26,28H27V29H26zM27,28H28V29H27zM30,28H31V29H30zM31,28H32V29H31zM34,28H35V29H34zM35,28H36V29H35zM38,28H39V29H38zM42,28H43V29H42zM4,29H5V30H4zM6,29H7V30H6zM7,29H8V30H7zM10,29H11V30H10zM15,29H16V30H15zM17,29H18V30H17zM18,29H19V30H18zM19,29H20V30H19zM20,29H21V30H20zM22,29H23V30H22zM23,29H24V30H23zM24,29H25V30H24zM25,29H26V30H25zM26,29H27V30H26zM27,29H28V30H27zM28,29H29V30H28zM30,29H31V30H30zM31,29H32V30H31zM34,29H35V30H34zM2,30H3V31H2zM3,30H4V31H3zM4,30H5V31H4zM5,30H6V31H5zM6,30H7V31H6zM7,30H8V31H7zM8,30H9V31H8zM9,30H10V31H9zM12,30H13V31H12zM13,30H14V31H13zM19,30H20V31H19zM23,30H24V31H23zM24,30H25V31H24zM26,30H27V31H26zM29,30H30V31H29zM30,30H31V31H30zM31,30H32V31H31zM34,30H35V31H34zM35,30H36V31H35zM37,30H38V31H37zM3,31H4V32H3zM4,31H5V32H4zM5,31H6V32H5zM6,31H7V32H6zM7,31H8V32H7zM9,31H10V32H9zM10,31H11V32H10zM11,31H12V32H11zM13,31H14V32H13zM15,31H16V32H15zM17,31H18V32H17zM18,31H19V32H18zM19,31H20V32H19zM21,31H22V32H21zM22,31H23V32H22zM26,31H27V32H26zM28,31H29V32H28zM29,31H30V32H29zM34,31H35V32H34zM35,31H36V32H35zM36,31H37V32H36zM37,31H38V32H37zM39,31H40V32H39zM41,31H42V32H41zM42,31H43V32H42zM2,32H3V33H2zM4,32H5V33H4zM6,32H7V33H6zM7,32H8V33H7zM8,32H9V33H8zM10,32H11V33H10zM11,32H12V33H11zM13,32H14V33H13zM14,32H15V33H14zM15,32H16V33H15zM16,32H17V33H16zM17,32H18V33H17zM18,32H19V33H18zM20,32H21V33H20zM25,32H26V33H25zM26,32H27V33H26zM31,32H32V33H31zM32,32H33V33H32zM37,32H38V33H37zM40,32H41V33H40zM41,32H42V33H41zM42,32H43V33H42zM5,33H6V34H5zM10,33H11V34H10zM11,33H12V34H11zM12,33H13V34H12zM19,33H20V34H19zM20,33H21V34H20zM23,33H24V34H23zM26,33H27V34H26zM28,33H29V34H28zM29,33H30V34H29zM30,33H31V34H30zM31,33H32V34H31zM33,33H34V34H33zM34,33H35V34H34zM35,33H36V34H35zM38,33H39V34H38zM39,33H40V34H39zM41,33H42V34H41zM2,34H3V35H2zM4,34H5V35H4zM7,34H8V35H7zM8,34H9V35H8zM10,34H11V35H10zM16,34H17V35H16zM17,34H18V35H17zM18,34H19V35H18zM22,34H23V35H22zM23,34H24V35H23zM26,34H27V35H26zM27,34H28V35H27zM28,34H29V35H28zM30,34H31V35H30zM33,34H34V35H33zM34,34H35V35H34zM35,34H36V35H35zM36,34H37V35H36zM37,34H38V35H37zM38,34H39V35H38zM40,34H41V35H40zM41,34H42V35H41zM42,34H43V35H42zM10,35H11V36H10zM13,35H14V36H13zM14,35H15V36H14zM15,35H16V36H15zM16,35H17V36H16zM17,35H18V36H17zM18,35H19V36H18zM19,35H20V36H19zM22,35H23V36H22zM26,35H27V36H26zM27,35H28V36H27zM28,35H29V36H28zM30,35H31V36H30zM33,35H34V36H33zM34,35H35V36H34zM38,35H39V36H38zM41,35H42V36H41zM42,35H43V36H42zM2,36H3V37H2zM3,36H4V37H3zM4,36H5V37H4zM5,36H6V37H5zM6,36H7V37H6zM7,36H8V37H7zM8,36H9V37H8zM13,36H14V37H13zM14,36H15V37H14zM17,36H18V37H17zM18,36H19V37H18zM20,36H21V37H20zM21,36H22V37H21zM22,36H23V37H22zM23,36H24V37H23zM24,36H25V37H24zM27,36H28V37H27zM28,36H29V37H28zM30,36H31V37H30zM31,36H32V37H31zM34,36H35V37H34zM36,36H37V37H36zM38,36H39V37H38zM39,36H40V37H39zM40,36H41V37H40zM41,36H42V37H41zM2,37H3V38H2zM8,37H9V38H8zM10,37H11V38H10zM12,37H13V38H12zM14,37H15V38H14zM16,37H17V38H16zM20,37H21V38H20zM25,37H26V38H25zM26,37H27V38H26zM27,37H28V38H27zM29,37H30V38H29zM30,37H31V38H30zM31,37H32V38H31zM34,37H35V38H34zM38,37H39V38H38zM40,37H41V38H40zM42,37H43V38H42zM2,38H3V39H2zM4,38H5V39H4zM5,38H6V39H5zM6,38H7V39H6zM8,38H9V39H8zM11,38H12V39H11zM12,38H13V39H12zM13,38H14V39H13zM14,38H15V39H14zM15,38H16V39H15zM18,38H19V39H18zM20,38H21V39H20zM21,38H22V39H21zM22,38H23V39H22zM26,38H27V39H26zM28,38H29V39H28zM30,38H31V39H30zM34,38H35V39H34zM35,38H36V39H35zM36,38H37V39H36zM37,38H38V39H37zM38,38H39V39H38zM41,38H42V39H41zM2,39H3V40H2zM4,39H5V40H4zM5,39H6V40H5zM6,39H7V40H6zM8,39H9V40H8zM10,39H11V40H10zM11,39H12V40H11zM12,39H13V40H12zM14,39H15V40H14zM16,39H17V40H16zM19,39H20V40H19zM20,39H21V40H20zM21,39H22V40H21zM23,39H24V40H23zM24,39H25V40H24zM26,39H27V40H26zM28,39H29V40H28zM31,39H32V40H31zM33,39H34V40H33zM35,39H36V40H35zM36,39H37V40H36zM38,39H39V40H38zM40,39H41V40H40zM42,39H43V40H42zM2,40H3V41H2zM4,40H5V41H4zM5,40H6V41H5zM6,40H7V41H6zM8,40H9V41H8zM11,40H12V41H11zM15,40H16V41H15zM16,40H17V41H16zM17,40H18V41H17zM19,40H20V41H19zM20,40H21V41H20zM23,40H24V41H23zM24,40H25V41H24zM25,40H26V41H25zM26,40H27V41H26zM28,40H29V41H28zM34,40H35V41H34zM38,40H39V41H38zM39,40H40V41H39zM41,40H42V41H41zM42,40H43V41H42zM2,41H3V42H2zM8,41H9V42H8zM13,41H14V42H13zM14,41H15V42H14zM18,41H19V42H18zM20,41H21V42H20zM21,41H22V42H21zM22,41H23V42H22zM23,41H24V42H23zM24,41H25V42H24zM25,41H26V42H25zM27,41H28V42H27zM28,41H29V42H28zM29,41H30V42H29zM30,41H31V42H30zM31,41H32V42H31zM32,41H33V42H32zM33,41H34V42H33zM34,41H35V42H34zM35,41H36V42H35zM37,41H38V42H37zM41,41H42V42H41zM2,42H3V43H2zM3,42H4V43H3zM4,42H5V43H4zM5,42H6V43H5zM6,42H7V43H6zM7,42H8V43H7zM8,42H9V43H8zM10,42H11V43H10zM11,42H12V43H11zM12,42H13V43H12zM13,42H14V43H13zM14,42H15V43H14zM21,42H22V43H21zM22,42H23V43H22zM23,42H24V43H23zM24,42H25V43H24zM25,42H26V43H25zM31,42H32V43H31zM32,42H33V43H32zM34,42H35V43H34zM36,42H37V43H36zM37,42H38V43H37zM38,42H39V43H38zM39,42H40V43H39zM41,42H42V43H41z" id="qr-path" fill="#000000" fill-opacity="1" fill-rule="nonzero" stroke="none" /></svg>