<?xml version='1.0' encoding='UTF-8'?>
<svg width="39mm" height="39mm" version="1.1" viewBox="0 0 39 39" fill_color="white" back_color="transparent" xmlns="http://www.w3.org/2000/svg"><path d="M1,1H2V2H1zM2,1H3V2H2zM3,1H4V2H3zM4,1H5V2H4zM5,1H6V2H5zM6,1H7V2H6zM7,1H8V2H7zM10,1H11V2H10zM13,1H14V2H13zM14,1H15V2H14zM16,1H17V2H16zM18,1H19V2H18zM24,1H25V2H24zM26,1H27V2H26zM29,1H30V2H29zM31,1H32V2H31zM32,1H33V2H32zM33,1H34V2H33zM34,1H35V2H34zM35,1H36V2H35zM36,1H37V2H36zM37,1H38V2H37zM1,2H2V3H1zM7,2H8V3H7zM12,2H13V3H12zM13,2H14V3H13zM15,2H16V3H15zM16,2H17V3H16zM17,2H18V3H17zM19,2H20V3H19zM21,2H22V3H21zM22,2H23V3H22zM25,2H26V3H25zM28,2H29V3H28zM31,2H32V3H31zM37,2H38V3H37zM1,3H2V4H1zM3,3H4V4H3zM4,3H5V4H4zM5,3H6V4H5zM7,3H8V4H7zM9,3H10V4H9zM10,3H11V4H10zM13,3H14V4H13zM15,3H16V4H15zM16,3H17V4H16zM19,3H20V4H19zM22,3H23V4H22zM23,3H24V4H23zM24,3H25V4H24zM25,3H26V4H25zM28,3H29V4H28zM31,3H32V4H31zM33,3H34V4H33zM34,3H35V4H34zM35,3H36V4H35zM37,3H38V4H37zM1,4H2V5H1zM3,4H4V5H3zM4,4H5V5H4zM5,4H6V5H5zM7,4H8V5H7zM9,4H10V5H9zM16,4H17V5H16zM17,4H18V5H17zM18,4H19V5H18zM23,4H24V5H23zM25,4H26V5H25zM26,4H27V5H26zM29,4H30V5H29zM31,4H32V5H31zM33,4H34V5H33zM34,4H35V5H34zM35,4H36V5H35zM37,4H38V5H37zM1,5H2V6H1zM3,5H4V6H3zM4,5H5V6H4zM5,5H6V6H5zM7,5H8V6H7zM9,5H10V6H9zM10,5H11V6H10zM11,5H12V6H11zM14,5H15V6H14zM18,5H19V6H18zM19,5H20V6H19zM20,5H21V6H20zM21,5H22V6H21zM24,5H25V6H24zM26,5H27V6H26zM31,5H32V6H31zM33,5H34V6H33zM34,5H35V6H34zM35,5H36V6H35zM37,5H38V6H37zM1,6H2V7H1zM7,6H8V7H7zM9,6H10V7H9zM10,6H11V7H10zM11,6H12V7H11zM13,6H14V7H13zM14,6H15V7H14zM15,6H16V7H15zM18,6H19V7H18zM21,6H22V7H21zM23,6H24V7H23zM25,6H26V7H25zM28,6H29V7H28zM31,6H32V7H31zM37,6H38V7H37zM1,7H2V8H1zM2,7H3V8H2zM3,7H4V8H3zM4,7H5V8H4zM5,7H6V8H5zM6,7H7V8H6zM7,7H8V8H7zM9,7H10V8H9zM11,7H12V8H11zM13,7H14V8H13zM15,7H16V8H15zM17,7H18V8H17zM19,7H20V8H19zM21,7H22V8H21zM23,7H24V8H23zM25,7H26V8H25zM27,7H28V8H27zM29,7H30V8H29zM31,7H32V8H31zM32,7H33V8H32zM33,7H34V8H33zM34,7H35V8H34zM35,7H36V8H35zM36,7H37V8H36zM37,7H38V8H37zM9,8H10V9H9zM10,8H11V9H10zM12,8H13V9H12zM15,8H16V9H15zM18,8H19V9H18zM19,8H20V9H19zM20,8H21V9H20zM22,8H23V9H22zM24,8H25V9H24zM27,8H28V9H27zM29,8H30V9H29zM1,9H2V10H1zM3,9H4V10H3zM4,9H5V10H4zM5,9H6V10H5zM6,9H7V10H6zM7,9H8V10H7zM11,9H12V10H11zM12,9H13V10H12zM13,9H14V10H13zM14,9H15V10H14zM15,9H16V10H15zM17,9H18V10H17zM23,9H24V10H23zM24,9H25V10H24zM26,9H27V10H26zM27,9H28V10H27zM28,9H29V10H28zM31,9H32V10H31zM32,9H33V10H32zM33,9H34V10H33zM34,9H35V10H34zM35,9H36V10H35zM2,10H3V11H2zM4,10H5V11H4zM5,10H6V11H5zM13,10H14V11H13zM16,10H17V11H16zM19,10H20V11H19zM21,10H22V11H21zM24,10H25V11H24zM26,10H27V11H26zM29,10H30V11H29zM32,10H33V11H32zM34,10H35V11H34zM35,10H36V11H35zM36,10H37V11H36zM3,11H4V12H3zM4,11H5V12H4zM5,11H6V12H5zM6,11H7V12H6zM7,11H8V12H7zM9,11H10V12H9zM10,11H11V12H10zM11,11H12V12H11zM15,11H16V12H15zM16,11H17V12H16zM17,11H18V12H17zM20,11H21V12H20zM23,11H24V12H23zM26,11H27V12H26zM27,11H28V12H27zM28,11H29V12H28zM29,11H30V12H29zM33,11H34V12H33zM34,11H35V12H34zM36,11H37V12H36zM37,11H38V12H37zM1,12H2V13H1zM3,12H4V13H3zM6,12H7V13H6zM9,12H10V13H9zM10,12H11V13H10zM12,12H13V13H12zM13,12H14V13H13zM14,12H15V13H14zM15,12H16V13H15zM16,12H17V13H16zM19,12H20V13H19zM20,12H21V13H20zM21,12H22V13H21zM22,12H23V13H22zM23,12H24V13H23zM30,12H31V13H30zM32,12H33V13H32zM37,12H38V13H37zM2,13H3V14H2zM4,13H5V14H4zM7,13H8V14H7zM9,13H10V14H9zM13,13H14V14H13zM14,13H15V14H14zM15,13H16V14H15zM16,13H17V14H16zM18,13H19V14H18zM20,13H21V14H20zM25,13H26V14H25zM26,13H27V14H26zM27,13H28V14H27zM28,13H29V14H28zM29,13H30V14H29zM30,13H31V14H30zM31,13H32V14H31zM33,13H34V14H33zM34,13H35V14H34zM35,13H36V14H35zM36,13H37V14H36zM37,13H38V14H37zM1,14H2V15H1zM6,14H7V15H6zM9,14H10V15H9zM10,14H11V15H10zM12,14H13V15H12zM15,14H16V15H15zM17,14H18V15H17zM19,14H20V15H19zM20,14H21V15H20zM21,14H22V15H21zM22,14H23V15H22zM24,14H25V15H24zM25,14H26V15H25zM26,14H27V15H26zM29,14H30V15H29zM30,14H31V15H30zM32,14H33V15H32zM2,15H3V16H2zM3,15H4V16H3zM7,15H8V16H7zM9,15H10V16H9zM10,15H11V16H10zM11,15H12V16H11zM14,15H15V16H14zM15,15H16V16H15zM16,15H17V16H16zM19,15H20V16H19zM22,15H23V16H22zM25,15H26V16H25zM26,15H27V16H26zM27,15H28V16H27zM28,15H29V16H28zM29,15H30V16H29zM32,15H33V16H32zM33,15H34V16H33zM34,15H35V16H34zM36,15H37V16H36zM37,15H38V16H37zM2,16H3V17H2zM6,16H7V17H6zM14,16H15V17H14zM17,16H18V17H17zM20,16H21V17H20zM21,16H22V17H21zM22,16H23V17H22zM23,16H24V17H23zM24,16H25V17H24zM25,16H26V17H25zM28,16H29V17H28zM30,16H31V17H30zM31,16H32V17H31zM32,16H33V17H32zM33,16H34V17H33zM36,16H37V17H36zM1,17H2V18H1zM2,17H3V18H2zM3,17H4V18H3zM4,17H5V18H4zM5,17H6V18H5zM6,17H7V18H6zM7,17H8V18H7zM10,17H11V18H10zM13,17H14V18H13zM14,17H15V18H14zM16,17H17V18H16zM19,17H20V18H19zM20,17H21V18H20zM21,17H22V18H21zM23,17H24V18H23zM25,17H26V18H25zM26,17H27V18H26zM27,17H28V18H27zM30,17H31V18H30zM31,17H32V18H31zM33,17H34V18H33zM35,17H36V18H35zM37,17H38V18H37zM1,18H2V19H1zM4,18H5V19H4zM5,18H6V19H5zM9,18H10V19H9zM11,18H12V19H11zM14,18H15V19H14zM16,18H17V19H16zM17,18H18V19H17zM18,18H19V19H18zM24,18H25V19H24zM29,18H30V19H29zM30,18H31V19H30zM32,18H33V19H32zM36,18H37V19H36zM2,19H3V20H2zM3,19H4V20H3zM5,19H6V20H5zM6,19H7V20H6zM7,19H8V20H7zM8,19H9V20H8zM9,19H10V20H9zM10,19H11V20H10zM11,19H12V20H11zM13,19H14V20H13zM14,19H15V20H14zM15,19H16V20H15zM18,19H19V20H18zM21,19H22V20H21zM23,19H24V20H23zM25,19H26V20H25zM26,19H27V20H26zM27,19H28V20H27zM28,19H29V20H28zM29,19H30V20H29zM31,19H32V20H31zM32,19H33V20H32zM36,19H37V20H36zM37,19H38V20H37zM2,20H3V21H2zM3,20H4V21H3zM4,20H5V21H4zM5,20H6V21H5zM8,20H9V21H8zM11,20H12V21H11zM12,20H13V21H12zM17,20H18V21H17zM22,20H23V21H22zM23,20H24V21H23zM27,20H28V21H27zM28,20H29V21H28zM30,20H31V21H30zM32,20H33V21H32zM34,20H35V21H34zM37,20H38V21H37zM2,21H3V22H2zM7,21H8V22H7zM8,21H9V22H8zM10,21H11V22H10zM11,21H12V22H11zM13,21H14V22H13zM14,21H15V22H14zM17,21H18V22H17zM18,21H19V22H18zM23,21H24V22H23zM25,21H26V22H25zM26,21H27V22H26zM27,21H28V22H27zM28,21H29V22H28zM30,21H31V22H30zM31,21H32V22H31zM33,21H34V22H33zM34,21H35V22H34zM35,21H36V22H35zM1,22H2V23H1zM3,22H4V23H3zM5,22H6V23H5zM6,22H7V23H6zM8,22H9V23H8zM9,22H10V23H9zM11,22H12V23H11zM12,22H13V23H12zM13,22H14V23H13zM15,22H16V23H15zM17,22H18V23H17zM18,22H19V23H18zM19,22H20V23H19zM20,22H21V23H20zM21,22H22V23H21zM24,22H25V23H24zM29,22H30V23H29zM34,22H35V23H34zM1,23H2V24H1zM3,23H4V24H3zM4,23H5V24H4zM5,23H6V24H5zM6,23H7V24H6zM7,23H8V24H7zM8,23H9V24H8zM11,23H12V24H11zM13,23H14V24H13zM16,23H17V24H16zM17,23H18V24H17zM18,23H19V24H18zM21,23H22V24H21zM22,23H23V24H22zM23,23H24V24H23zM26,23H27V24H26zM27,23H28V24H27zM28,23H29V24H28zM32,23H33V24H32zM33,23H34V24H33zM34,23H35V24H34zM36,23H37V24H36zM37,23H38V24H37zM1,24H2V25H1zM2,24H3V25H2zM5,24H6V25H5zM6,24H7V25H6zM8,24H9V25H8zM11,24H12V25H11zM12,24H13V25H12zM14,24H15V25H14zM18,24H19V25H18zM19,24H20V25H19zM21,24H22V25H21zM22,24H23V25H22zM27,24H28V25H27zM28,24H29V25H28zM29,24H30V25H29zM31,24H32V25H31zM32,24H33V25H32zM33,24H34V25H33zM36,24H37V25H36zM37,24H38V25H37zM3,25H4V26H3zM4,25H5V26H4zM7,25H8V26H7zM8,25H9V26H8zM9,25H10V26H9zM10,25H11V26H10zM11,25H12V26H11zM15,25H16V26H15zM17,25H18V26H17zM23,25H24V26H23zM26,25H27V26H26zM28,25H29V26H28zM31,25H32V26H31zM33,25H34V26H33zM35,25H36V26H35zM37,25H38V26H37zM1,26H2V27H1zM2,26H3V27H2zM3,26H4V27H3zM5,26H6V27H5zM6,26H7V27H6zM8,26H9V27H8zM10,26H11V27H10zM14,26H15V27H14zM16,26H17V27H16zM19,26H20V27H19zM21,26H22V27H21zM23,26H24V27H23zM24,26H25V27H24zM26,26H27V27H26zM29,26H30V27H29zM32,26H33V27H32zM35,26H36V27H35zM1,27H2V28H1zM3,27H4V28H3zM6,27H7V28H6zM7,27H8V28H7zM9,27H10V28H9zM16,27H17V28H16zM17,27H18V28H17zM18,27H19V28H18zM19,27H20V28H19zM20,27H21V28H20zM25,27H26V28H25zM28,27H29V28H28zM29,27H30V28H29zM30,27H31V28H30zM33,27H34V28H33zM35,27H36V28H35zM36,27H37V28H36zM37,27H38V28H37zM1,28H2V29H1zM5,28H6V29H5zM8,28H9V29H8zM13,28H14V29H13zM15,28H16V29H15zM16,28H17V29H16zM20,28H21V29H20zM21,28H22V29H21zM22,28H23V29H22zM23,28H24V29H23zM24,28H25V29H24zM27,28H28V29H27zM30,28H31V29H30zM31,28H32V29H31zM37,28H38V29H37zM1,29H2V30H1zM6,29H7V30H6zM7,29H8V30H7zM9,29H10V30H9zM10,29H11V30H10zM11,29H12V30H11zM12,29H13V30H12zM14,29H15V30H14zM16,29H17V30H16zM18,29H19V30H18zM20,29H21V30H20zM23,29H24V30H23zM24,29H25V30H24zM26,29H27V30H26zM27,29H28V30H27zM28,29H29V30H28zM29,29H30V30H29zM30,29H31V30H30zM31,29H32V30H31zM32,29H33V30H32zM33,29H34V30H33zM35,29H36V30H35zM9,30H10V31H9zM10,30H11V31H10zM12,30H13V31H12zM14,30H15V31H14zM17,30H18V31H17zM20,30H21V31H20zM21,30H22V31H21zM22,30H23V31H22zM23,30H24V31H23zM24,30H25V31H24zM26,30H27V31H26zM27,30H28V31H27zM29,30H30V31H29zM33,30H34V31H33zM34,30H35V31H34zM1,31H2V32H1zM2,31H3V32H2zM3,31H4V32H3zM4,31H5V32H4zM5,31H6V32H5zM6,31H7V32H6zM7,31H8V32H7zM10,31H11V32H10zM11,31H12V32H11zM12,31H13V32H12zM13,31H14V32H13zM16,31H17V32H16zM17,31H18V32H17zM19,31H20V32H19zM25,31H26V32H25zM27,31H28V32H27zM29,31H30V32H29zM31,31H32V32H31zM33,31H34V32H33zM35,31H36V32H35zM36,31H37V32H36zM37,31H38V32H37zM1,32H2V33H1zM7,32H8V33H7zM9,32H10V33H9zM11,32H12V33H11zM12,32H13V33H12zM17,32H18V33H17zM20,32H21V33H20zM22,32H23V33H22zM23,32H24V33H23zM25,32H26V33H25zM27,32H28V33H27zM29,32H30V33H29zM33,32H34V33H33zM34,32H35V33H34zM36,32H37V33H36zM1,33H2V34H1zM3,33H4V34H3zM4,33H5V34H4zM5,33H6V34H5zM7,33H8V34H7zM9,33H10V34H9zM10,33H11V34H10zM12,33H13V34H12zM14,33H15V34H14zM19,33H20V34H19zM24,33H25V34H24zM25,33H26V34H25zM26,33H27V34H26zM27,33H28V34H27zM28,33H29V34H28zM29,33H30V34H29zM30,33H31V34H30zM31,33H32V34H31zM32,33H33V34H32zM33,33H34V34H33zM35,33H36V34H35zM37,33H38V34H37zM1,34H2V35H1zM3,34H4V35H3zM4,34H5V35H4zM5,34H6V35H5zM7,34H8V35H7zM9,34H10V35H9zM11,34H12V35H11zM13,34H14V35H13zM14,34H15V35H14zM16,34H17V35H16zM17,34H18V35H17zM22,34H23V35H22zM24,34H25V35H24zM29,34H30V35H29zM30,34H31V35H30zM31,34H32V35H31zM33,34H34V35H33zM34,34H35V35H34zM37,34H38V35H37zM1,35H2V36H1zM3,35H4V36H3zM4,35H5V36H4zM5,35H6V36H5zM7,35H8V36H7zM9,35H10V36H9zM10,35H11V36H10zM11,35H12V36H11zM13,35H14V36H13zM14,35H15V36H14zM15,35H16V36H15zM18,35H19V36H18zM19,35H20V36H19zM21,35H22V36H21zM23,35H24V36H23zM27,35H28V36H27zM29,35H30V36H29zM34,35H35V36H34zM36,35H37V36H36zM37,35H38V36H37zM1,36H2V37H1zM7,36H8V37H7zM10,36H11V37H10zM12,36H13V37H12zM13,36H14V37H13zM14,36H15V37H14zM15,36H16V37H15zM17,36H18V37H17zM20,36H21V37H20zM21,36H22V37H21zM22,36H23V37H22zM25,36H26V37H25zM28,36H29V37H28zM29,36H30V37H29zM30,36H31V37H30zM33,36H34V37H33zM37,36H38V37H37zM1,37H2V38H1zM2,37H3V38H2zM3,37H4V38H3zM4,37H5V38H4zM5,37H6V38H5zM6,37H7V38H6zM7,37H8V38H7zM9,37H10V38H9zM10,37H11V38H10zM11,37H12V38H11zM14,37H15V38H14zM15,37H16V38H15zM18,37H19V38H18zM19,37H20V38H19zM20,37H21V38H20zM23,37H24V38H23zM24,37H25V38H24zM25,37H26V38H25zM26,37H27V38H26zM27,37H28V38H27zM30,37H31V38H30zM31,37H32V38H31zM33,37H34V38H33zM35,37H36V38H35zM36,37H37V38H36zM37,37H38V38H37z" id="qr-path" fill="#000000" fill-opacity="1" fill-rule="nonzero" stroke="none" /></svg>