<svg xmlns="http://www.w3.org/2000/svg" viewBox="0 0 900 420" style="width:100%;height:auto">
<style>
  .t{font-family:'Inter',-apple-system,BlinkMacSystemFont,'Segoe UI',sans-serif}
  .m{font-family:'JetBrains Mono','SF Mono','Cascadia Code','Fira Code',monospace}
  .title{font-size:18px;font-weight:700;fill:#f0f0f4}
  .sub{font-size:13px;fill:rgba(240,240,244,0.6)}
  .al{font-size:12px;fill:rgba(240,240,244,0.6)}
  .at{font-size:12px;fill:rgba(240,240,244,0.6)}
  .lg{font-size:12px;fill:rgba(240,240,244,0.8)}
  .an{font-size:11px;font-weight:600;fill:rgba(240,240,244,0.8)}
  .gr{stroke:rgba(240,240,244,0.06);stroke-width:1}
  .ax{stroke:rgba(240,240,244,0.15);stroke-width:1}
  .sr{fill:none;stroke-width:2.5;stroke-linecap:round;stroke-linejoin:round}
  .tl{stroke-width:1.5;stroke-dasharray:8,4}
</style>
<rect width="900" height="420" fill="transparent"/>
<text x="450.0" y="24" class="t title" text-anchor="middle">p99 TTFT by CPU offload tier</text>
<text x="450.0" y="46" class="t sub" text-anchor="middle">Qwen3-4B FP8, vLLM + LMCache, g6.4xlarge L4, 10K shared prefix + 12-turn agentic workload</text>
<line x1="70" y1="365.0" x2="870" y2="365.0" class="gr"/>
<text x="62" y="369.0" class="m al" text-anchor="end">0.1s</text>
<line x1="70" y1="318.0830766192332" x2="870" y2="318.0830766192332" class="gr"/>
<text x="62" y="322.0830766192332" class="m al" text-anchor="end">0.3s</text>
<line x1="70" y1="266.6666666666667" x2="870" y2="266.6666666666667" class="gr"/>
<text x="62" y="270.6666666666667" class="m al" text-anchor="end">1s</text>
<line x1="70" y1="219.74974328589988" x2="870" y2="219.74974328589988" class="gr"/>
<text x="62" y="223.74974328589988" class="m al" text-anchor="end">3s</text>
<line x1="70" y1="168.33333333333334" x2="870" y2="168.33333333333334" class="gr"/>
<text x="62" y="172.33333333333334" class="m al" text-anchor="end">10s</text>
<line x1="70" y1="121.41640995256651" x2="870" y2="121.41640995256651" class="gr"/>
<text x="62" y="125.41640995256651" class="m al" text-anchor="end">30s</text>
<line x1="70" y1="70.0" x2="870" y2="70.0" class="gr"/>
<text x="62" y="74.0" class="m al" text-anchor="end">100s</text>
<line x1="70" y1="365" x2="870" y2="365" class="ax"/>
<text x="70.0" y="383" class="m al" text-anchor="middle">1</text>
<text x="189.14893617021278" y="383" class="m al" text-anchor="middle">8</text>
<text x="291.2765957446809" y="383" class="m al" text-anchor="middle">14</text>
<text x="393.4042553191489" y="383" class="m al" text-anchor="middle">20</text>
<text x="529.5744680851064" y="383" class="m al" text-anchor="middle">28</text>
<text x="733.8297872340426" y="383" class="m al" text-anchor="middle">40</text>
<text x="870.0" y="383" class="m al" text-anchor="middle">48</text>
<text x="450.0" y="416" class="t at" text-anchor="middle">Concurrent sessions</text>
<line x1="70" y1="237.0653837597085" x2="870" y2="237.0653837597085" stroke="#eab308" class="tl" opacity="0.5"/>
<text x="874" y="241.0653837597085" fill="#eab308" class="m an" font-size="11">2s target</text>
<polyline points="70.0,315.2 87.0,295.6 121.1,285.7 155.1,282.0 189.1,276.1 223.2,272.5 257.2,272.1 291.3,110.3 325.3,100.3 359.4,104.0 393.4,106.5 461.5,105.3 529.6,103.8 597.7,99.9 733.8,104.3 870.0,105.8" stroke="#0891b2" class="sr"/>
<circle cx="70.0" cy="315.2" r="3" fill="#0891b2"/>
<circle cx="87.0" cy="295.6" r="3" fill="#0891b2"/>
<circle cx="121.1" cy="285.7" r="3" fill="#0891b2"/>
<circle cx="155.1" cy="282.0" r="3" fill="#0891b2"/>
<circle cx="189.1" cy="276.1" r="3" fill="#0891b2"/>
<circle cx="223.2" cy="272.5" r="3" fill="#0891b2"/>
<circle cx="257.2" cy="272.1" r="3" fill="#0891b2"/>
<circle cx="291.3" cy="110.3" r="3" fill="#0891b2"/>
<circle cx="325.3" cy="100.3" r="3" fill="#0891b2"/>
<circle cx="359.4" cy="104.0" r="3" fill="#0891b2"/>
<circle cx="393.4" cy="106.5" r="3" fill="#0891b2"/>
<circle cx="461.5" cy="105.3" r="3" fill="#0891b2"/>
<circle cx="529.6" cy="103.8" r="3" fill="#0891b2"/>
<circle cx="597.7" cy="99.9" r="3" fill="#0891b2"/>
<circle cx="733.8" cy="104.3" r="3" fill="#0891b2"/>
<circle cx="870.0" cy="105.8" r="3" fill="#0891b2"/>
<polyline points="70.0,314.1 87.0,293.9 121.1,285.7 155.1,278.4 189.1,271.6 223.2,268.5 257.2,272.1 291.3,112.2 325.3,100.9 359.4,102.9 393.4,105.3 461.5,107.9 529.6,105.0 597.7,101.1 733.8,105.5 870.0,106.2" stroke="#dc2626" class="sr"/>
<circle cx="70.0" cy="314.1" r="3" fill="#dc2626"/>
<circle cx="87.0" cy="293.9" r="3" fill="#dc2626"/>
<circle cx="121.1" cy="285.7" r="3" fill="#dc2626"/>
<circle cx="155.1" cy="278.4" r="3" fill="#dc2626"/>
<circle cx="189.1" cy="271.6" r="3" fill="#dc2626"/>
<circle cx="223.2" cy="268.5" r="3" fill="#dc2626"/>
<circle cx="257.2" cy="272.1" r="3" fill="#dc2626"/>
<circle cx="291.3" cy="112.2" r="3" fill="#dc2626"/>
<circle cx="325.3" cy="100.9" r="3" fill="#dc2626"/>
<circle cx="359.4" cy="102.9" r="3" fill="#dc2626"/>
<circle cx="393.4" cy="105.3" r="3" fill="#dc2626"/>
<circle cx="461.5" cy="107.9" r="3" fill="#dc2626"/>
<circle cx="529.6" cy="105.0" r="3" fill="#dc2626"/>
<circle cx="597.7" cy="101.1" r="3" fill="#dc2626"/>
<circle cx="733.8" cy="105.5" r="3" fill="#dc2626"/>
<circle cx="870.0" cy="106.2" r="3" fill="#dc2626"/>
<polyline points="70.0,313.4 87.0,293.4 121.1,284.6 155.1,278.4 189.1,271.5 223.2,267.1 257.2,267.1 291.3,245.3 325.3,199.9 359.4,190.3 393.4,158.7 461.5,141.6 529.6,147.6 597.7,151.2 733.8,141.3 870.0,143.9" stroke="#d97706" class="sr" stroke-dasharray="8,4"/>
<circle cx="70.0" cy="313.4" r="3" fill="#d97706"/>
<circle cx="87.0" cy="293.4" r="3" fill="#d97706"/>
<circle cx="121.1" cy="284.6" r="3" fill="#d97706"/>
<circle cx="155.1" cy="278.4" r="3" fill="#d97706"/>
<circle cx="189.1" cy="271.5" r="3" fill="#d97706"/>
<circle cx="223.2" cy="267.1" r="3" fill="#d97706"/>
<circle cx="257.2" cy="267.1" r="3" fill="#d97706"/>
<circle cx="291.3" cy="245.3" r="3" fill="#d97706"/>
<circle cx="325.3" cy="199.9" r="3" fill="#d97706"/>
<circle cx="359.4" cy="190.3" r="3" fill="#d97706"/>
<circle cx="393.4" cy="158.7" r="3" fill="#d97706"/>
<circle cx="461.5" cy="141.6" r="3" fill="#d97706"/>
<circle cx="529.6" cy="147.6" r="3" fill="#d97706"/>
<circle cx="597.7" cy="151.2" r="3" fill="#d97706"/>
<circle cx="733.8" cy="141.3" r="3" fill="#d97706"/>
<circle cx="870.0" cy="143.9" r="3" fill="#d97706"/>
<polyline points="70.0,313.4 87.0,293.4 121.1,284.6 155.1,278.4 189.1,271.5 223.2,267.1 257.2,267.1 291.3,180.8 325.3,169.1 359.4,162.7 393.4,156.5 461.5,148.8 529.6,141.1 597.7,131.8 733.8,126.2 870.0,120.2" stroke="#16a34a" class="sr" stroke-dasharray="4,2"/>
<circle cx="70.0" cy="313.4" r="3" fill="#16a34a"/>
<circle cx="87.0" cy="293.4" r="3" fill="#16a34a"/>
<circle cx="121.1" cy="284.6" r="3" fill="#16a34a"/>
<circle cx="155.1" cy="278.4" r="3" fill="#16a34a"/>
<circle cx="189.1" cy="271.5" r="3" fill="#16a34a"/>
<circle cx="223.2" cy="267.1" r="3" fill="#16a34a"/>
<circle cx="257.2" cy="267.1" r="3" fill="#16a34a"/>
<circle cx="291.3" cy="180.8" r="3" fill="#16a34a"/>
<circle cx="325.3" cy="169.1" r="3" fill="#16a34a"/>
<circle cx="359.4" cy="162.7" r="3" fill="#16a34a"/>
<circle cx="393.4" cy="156.5" r="3" fill="#16a34a"/>
<circle cx="461.5" cy="148.8" r="3" fill="#16a34a"/>
<circle cx="529.6" cy="141.1" r="3" fill="#16a34a"/>
<circle cx="597.7" cy="131.8" r="3" fill="#16a34a"/>
<circle cx="733.8" cy="126.2" r="3" fill="#16a34a"/>
<circle cx="870.0" cy="120.2" r="3" fill="#16a34a"/>
<line x1="90" y1="84" x2="114" y2="84" stroke="#0891b2" stroke-width="2.5"/>
<text x="120" y="88" fill="#0891b2" class="t lg">0 GB</text>
<line x1="240" y1="84" x2="264" y2="84" stroke="#dc2626" stroke-width="2.5"/>
<text x="270" y="88" fill="#dc2626" class="t lg">8 GB</text>
<line x1="390" y1="84" x2="414" y2="84" stroke="#d97706" stroke-width="2.5" stroke-dasharray="8,4"/>
<text x="420" y="88" fill="#d97706" class="t lg">16 GB</text>
<line x1="540" y1="84" x2="564" y2="84" stroke="#16a34a" stroke-width="2.5" stroke-dasharray="4,2"/>
<text x="570" y="88" fill="#16a34a" class="t lg">32 GB</text>
<rect x="310" y="82" width="42" height="16" rx="3" fill="rgba(13,13,16,0.85)"/>
<text x="331" y="94" fill="#0891b2" class="m an" text-anchor="middle">knee</text>
<line x1="291.3" y1="110.3" x2="314" y2="90" stroke="#0891b2" stroke-width="1" opacity="0.5"/>
<rect x="330" y="168" width="68" height="16" rx="3" fill="rgba(13,13,16,0.85)"/>
<text x="364" y="180" fill="#16a34a" class="m an" text-anchor="middle">5x lower</text>
<line x1="291.3" y1="180.8" x2="334" y2="176" stroke="#16a34a" stroke-width="1" opacity="0.5"/>
</svg>