<svg xmlns="http://www.w3.org/2000/svg" viewBox="0 0 1200 510" style="width:100%;height:auto">
<style>
  .t{font-family:'Inter',-apple-system,BlinkMacSystemFont,'Segoe UI',sans-serif}
  .m{font-family:'JetBrains Mono','SF Mono','Cascadia Code','Fira Code',monospace}
  .title{font-size:18px;font-weight:700}
  .sub{font-size:12px}
  .pt{font-size:15px;font-weight:700}
  .al{font-size:11px}
  .at{font-size:11px}
  .lg{font-size:11px}
  .an{font-size:10px;font-weight:600}
  .gr{stroke-width:1}
  .tl{stroke-width:1.5;stroke-dasharray:8,4}
  .sr{fill:none;stroke-width:2;stroke-linecap:round;stroke-linejoin:round}
  .title,.pt{fill:#f0f0f4}
  .sub,.al,.at,.lg{fill:rgba(240,240,244,0.6)}
  .an{fill:rgba(240,240,244,0.8)}
  .gr{stroke:rgba(240,240,244,0.06)}
  .ax{stroke:rgba(240,240,244,0.15)}
</style>
<rect width="1200" height="510" fill="transparent"/>
<text x="600" y="22" class="t title" text-anchor="middle">LMCache CPU KV offload shifts the p99 knee only when sized large enough</text>
<text x="600" y="42" class="t sub" text-anchor="middle">Qwen3-4B · g6.4xlarge L4 · fp8 KV · 10K shared prompt + 12-turn agentic workload</text>
<text x="320" y="65" class="t pt" text-anchor="middle">TTFT p50</text>
<text x="900" y="65" class="t pt" text-anchor="middle">TTFT p99</text>
<line x1="80" y1="425.0" x2="560" y2="425.0" class="gr"/>
<text x="74" y="429.0" class="m al" text-anchor="end">0.1s</text>
<line x1="80" y1="369.3" x2="560" y2="369.3" class="gr"/>
<text x="74" y="373.3" class="m al" text-anchor="end">0.3s</text>
<line x1="80" y1="308.3" x2="560" y2="308.3" class="gr"/>
<text x="74" y="312.3" class="m al" text-anchor="end">1s</text>
<line x1="80" y1="252.7" x2="560" y2="252.7" class="gr"/>
<text x="74" y="256.7" class="m al" text-anchor="end">3s</text>
<line x1="80" y1="191.7" x2="560" y2="191.7" class="gr"/>
<text x="74" y="195.7" class="m al" text-anchor="end">10s</text>
<line x1="80" y1="136.0" x2="560" y2="136.0" class="gr"/>
<text x="74" y="140.0" class="m al" text-anchor="end">30s</text>
<line x1="80" y1="75.0" x2="560" y2="75.0" class="gr"/>
<text x="74" y="79.0" class="m al" text-anchor="end">100s</text>
<line x1="80" y1="425" x2="560" y2="425" class="ax"/>
<text x="80.0" y="441" class="m al" text-anchor="middle">1</text>
<text x="151.5" y="441" class="m al" text-anchor="middle">8</text>
<text x="212.8" y="441" class="m al" text-anchor="middle">14</text>
<text x="274.0" y="441" class="m al" text-anchor="middle">20</text>
<text x="355.7" y="441" class="m al" text-anchor="middle">28</text>
<text x="478.3" y="441" class="m al" text-anchor="middle">40</text>
<text x="560.0" y="441" class="m al" text-anchor="middle">48</text>
<text x="320.0" y="457" class="t at" text-anchor="middle">Concurrent sessions</text>
<line x1="80" y1="273.2" x2="560" y2="273.2" stroke="#eab308" class="tl" opacity="0.5"/>
<text x="564" y="277.2" fill="#eab308" class="m an" font-size="10">2s</text>
<line x1="660" y1="425.0" x2="1140" y2="425.0" class="gr"/>
<text x="654" y="429.0" class="m al" text-anchor="end">0.1s</text>
<line x1="660" y1="369.3" x2="1140" y2="369.3" class="gr"/>
<text x="654" y="373.3" class="m al" text-anchor="end">0.3s</text>
<line x1="660" y1="308.3" x2="1140" y2="308.3" class="gr"/>
<text x="654" y="312.3" class="m al" text-anchor="end">1s</text>
<line x1="660" y1="252.7" x2="1140" y2="252.7" class="gr"/>
<text x="654" y="256.7" class="m al" text-anchor="end">3s</text>
<line x1="660" y1="191.7" x2="1140" y2="191.7" class="gr"/>
<text x="654" y="195.7" class="m al" text-anchor="end">10s</text>
<line x1="660" y1="136.0" x2="1140" y2="136.0" class="gr"/>
<text x="654" y="140.0" class="m al" text-anchor="end">30s</text>
<line x1="660" y1="75.0" x2="1140" y2="75.0" class="gr"/>
<text x="654" y="79.0" class="m al" text-anchor="end">100s</text>
<line x1="660" y1="425" x2="1140" y2="425" class="ax"/>
<text x="660.0" y="441" class="m al" text-anchor="middle">1</text>
<text x="731.5" y="441" class="m al" text-anchor="middle">8</text>
<text x="792.8" y="441" class="m al" text-anchor="middle">14</text>
<text x="854.0" y="441" class="m al" text-anchor="middle">20</text>
<text x="935.7" y="441" class="m al" text-anchor="middle">28</text>
<text x="1058.3" y="441" class="m al" text-anchor="middle">40</text>
<text x="1140.0" y="441" class="m al" text-anchor="middle">48</text>
<text x="900.0" y="457" class="t at" text-anchor="middle">Concurrent sessions</text>
<line x1="660" y1="273.2" x2="1140" y2="273.2" stroke="#eab308" class="tl" opacity="0.5"/>
<text x="1144" y="277.2" fill="#eab308" class="m an" font-size="10">2s</text>
<polyline points="80.0,352.4 90.2,339.1 110.6,311.0 131.1,307.2 151.5,302.4 171.9,298.4 192.3,297.0 212.8,288.0 233.2,279.4 253.6,266.2 274.0,267.7 314.9,264.4 355.7,261.2 396.6,260.2 478.3,254.6 560.0,206.4" stroke="#0891b2" class="sr"/>
<polyline points="660.0,340.7 670.2,310.4 690.6,290.4 711.1,284.5 731.5,272.5 751.9,261.2 772.3,252.0 792.8,176.0 813.2,122.5 833.6,112.4 854.0,116.0 894.9,116.3 935.7,129.7 976.6,116.6 1058.3,109.4 1140.0,116.3" stroke="#0891b2" class="sr"/>
<circle cx="80.0" cy="352.4" r="2" fill="#0891b2"/>
<circle cx="90.2" cy="339.1" r="2" fill="#0891b2"/>
<circle cx="110.6" cy="311.0" r="2" fill="#0891b2"/>
<circle cx="131.1" cy="307.2" r="2" fill="#0891b2"/>
<circle cx="151.5" cy="302.4" r="2" fill="#0891b2"/>
<circle cx="171.9" cy="298.4" r="2" fill="#0891b2"/>
<circle cx="192.3" cy="297.0" r="2" fill="#0891b2"/>
<circle cx="212.8" cy="288.0" r="2" fill="#0891b2"/>
<circle cx="233.2" cy="279.4" r="2" fill="#0891b2"/>
<circle cx="253.6" cy="266.2" r="2" fill="#0891b2"/>
<circle cx="274.0" cy="267.7" r="2" fill="#0891b2"/>
<circle cx="314.9" cy="264.4" r="2" fill="#0891b2"/>
<circle cx="355.7" cy="261.2" r="2" fill="#0891b2"/>
<circle cx="396.6" cy="260.2" r="2" fill="#0891b2"/>
<circle cx="478.3" cy="254.6" r="2" fill="#0891b2"/>
<circle cx="560.0" cy="206.4" r="2" fill="#0891b2"/>
<circle cx="660.0" cy="340.7" r="2" fill="#0891b2"/>
<circle cx="670.2" cy="310.4" r="2" fill="#0891b2"/>
<circle cx="690.6" cy="290.4" r="2" fill="#0891b2"/>
<circle cx="711.1" cy="284.5" r="2" fill="#0891b2"/>
<circle cx="731.5" cy="272.5" r="2" fill="#0891b2"/>
<circle cx="751.9" cy="261.2" r="2" fill="#0891b2"/>
<circle cx="772.3" cy="252.0" r="2" fill="#0891b2"/>
<circle cx="792.8" cy="176.0" r="2" fill="#0891b2"/>
<circle cx="813.2" cy="122.5" r="2" fill="#0891b2"/>
<circle cx="833.6" cy="112.4" r="2" fill="#0891b2"/>
<circle cx="854.0" cy="116.0" r="2" fill="#0891b2"/>
<circle cx="894.9" cy="116.3" r="2" fill="#0891b2"/>
<circle cx="935.7" cy="129.7" r="2" fill="#0891b2"/>
<circle cx="976.6" cy="116.6" r="2" fill="#0891b2"/>
<circle cx="1058.3" cy="109.4" r="2" fill="#0891b2"/>
<circle cx="1140.0" cy="116.3" r="2" fill="#0891b2"/>
<polyline points="80.0,351.1 90.2,321.7 110.6,310.6 131.1,305.9 151.5,300.9 171.9,296.7 192.3,297.0 212.8,283.7 233.2,275.9 253.6,265.4 274.0,263.6 314.9,263.0 355.7,260.2 396.6,256.1 478.3,254.6 560.0,205.9" stroke="#dc2626" class="sr"/>
<polyline points="660.0,340.2 670.2,309.5 690.6,278.2 711.1,283.1 731.5,268.8 751.9,258.0 772.3,252.0 792.8,173.8 813.2,122.8 833.6,122.5 854.0,117.2 894.9,113.3 935.7,127.6 976.6,115.7 1058.3,109.9 1140.0,116.3" stroke="#dc2626" class="sr"/>
<circle cx="80.0" cy="351.1" r="2" fill="#dc2626"/>
<circle cx="90.2" cy="321.7" r="2" fill="#dc2626"/>
<circle cx="110.6" cy="310.6" r="2" fill="#dc2626"/>
<circle cx="131.1" cy="305.9" r="2" fill="#dc2626"/>
<circle cx="151.5" cy="300.9" r="2" fill="#dc2626"/>
<circle cx="171.9" cy="296.7" r="2" fill="#dc2626"/>
<circle cx="192.3" cy="297.0" r="2" fill="#dc2626"/>
<circle cx="212.8" cy="283.7" r="2" fill="#dc2626"/>
<circle cx="233.2" cy="275.9" r="2" fill="#dc2626"/>
<circle cx="253.6" cy="265.4" r="2" fill="#dc2626"/>
<circle cx="274.0" cy="263.6" r="2" fill="#dc2626"/>
<circle cx="314.9" cy="263.0" r="2" fill="#dc2626"/>
<circle cx="355.7" cy="260.2" r="2" fill="#dc2626"/>
<circle cx="396.6" cy="256.1" r="2" fill="#dc2626"/>
<circle cx="478.3" cy="254.6" r="2" fill="#dc2626"/>
<circle cx="560.0" cy="205.9" r="2" fill="#dc2626"/>
<circle cx="660.0" cy="340.2" r="2" fill="#dc2626"/>
<circle cx="670.2" cy="309.5" r="2" fill="#dc2626"/>
<circle cx="690.6" cy="278.2" r="2" fill="#dc2626"/>
<circle cx="711.1" cy="283.1" r="2" fill="#dc2626"/>
<circle cx="731.5" cy="268.8" r="2" fill="#dc2626"/>
<circle cx="751.9" cy="258.0" r="2" fill="#dc2626"/>
<circle cx="772.3" cy="252.0" r="2" fill="#dc2626"/>
<circle cx="792.8" cy="173.8" r="2" fill="#dc2626"/>
<circle cx="813.2" cy="122.8" r="2" fill="#dc2626"/>
<circle cx="833.6" cy="122.5" r="2" fill="#dc2626"/>
<circle cx="854.0" cy="117.2" r="2" fill="#dc2626"/>
<circle cx="894.9" cy="113.3" r="2" fill="#dc2626"/>
<circle cx="935.7" cy="127.6" r="2" fill="#dc2626"/>
<circle cx="976.6" cy="115.7" r="2" fill="#dc2626"/>
<circle cx="1058.3" cy="109.9" r="2" fill="#dc2626"/>
<circle cx="1140.0" cy="116.3" r="2" fill="#dc2626"/>
<polyline points="80.0,351.1 90.2,320.3 110.6,311.0 131.1,305.9 151.5,300.9 171.9,295.7 192.3,293.4 212.8,296.7 233.2,279.6 253.6,275.5 274.0,266.5 314.9,263.0 355.7,254.9 396.6,256.4 478.3,236.7 560.0,226.5" stroke="#d97706" class="sr" stroke-dasharray="8,4"/>
<polyline points="660.0,339.5 670.2,308.0 690.6,289.8 711.1,283.7 731.5,268.4 751.9,256.7 772.3,256.7 792.8,244.5 813.2,197.8 833.6,174.0 854.0,115.7 894.9,95.8 935.7,100.5 976.6,103.8 1058.3,97.3 1140.0,98.6" stroke="#d97706" class="sr" stroke-dasharray="8,4"/>
<circle cx="80.0" cy="351.1" r="2" fill="#d97706"/>
<circle cx="90.2" cy="320.3" r="2" fill="#d97706"/>
<circle cx="110.6" cy="311.0" r="2" fill="#d97706"/>
<circle cx="131.1" cy="305.9" r="2" fill="#d97706"/>
<circle cx="151.5" cy="300.9" r="2" fill="#d97706"/>
<circle cx="171.9" cy="295.7" r="2" fill="#d97706"/>
<circle cx="192.3" cy="293.4" r="2" fill="#d97706"/>
<circle cx="212.8" cy="296.7" r="2" fill="#d97706"/>
<circle cx="233.2" cy="279.6" r="2" fill="#d97706"/>
<circle cx="253.6" cy="275.5" r="2" fill="#d97706"/>
<circle cx="274.0" cy="266.5" r="2" fill="#d97706"/>
<circle cx="314.9" cy="263.0" r="2" fill="#d97706"/>
<circle cx="355.7" cy="254.9" r="2" fill="#d97706"/>
<circle cx="396.6" cy="256.4" r="2" fill="#d97706"/>
<circle cx="478.3" cy="236.7" r="2" fill="#d97706"/>
<circle cx="560.0" cy="226.5" r="2" fill="#d97706"/>
<circle cx="660.0" cy="339.5" r="2" fill="#d97706"/>
<circle cx="670.2" cy="308.0" r="2" fill="#d97706"/>
<circle cx="690.6" cy="289.8" r="2" fill="#d97706"/>
<circle cx="711.1" cy="283.7" r="2" fill="#d97706"/>
<circle cx="731.5" cy="268.4" r="2" fill="#d97706"/>
<circle cx="751.9" cy="256.7" r="2" fill="#d97706"/>
<circle cx="772.3" cy="256.7" r="2" fill="#d97706"/>
<circle cx="792.8" cy="244.5" r="2" fill="#d97706"/>
<circle cx="813.2" cy="197.8" r="2" fill="#d97706"/>
<circle cx="833.6" cy="174.0" r="2" fill="#d97706"/>
<circle cx="854.0" cy="115.7" r="2" fill="#d97706"/>
<circle cx="894.9" cy="95.8" r="2" fill="#d97706"/>
<circle cx="935.7" cy="100.5" r="2" fill="#d97706"/>
<circle cx="976.6" cy="103.8" r="2" fill="#d97706"/>
<circle cx="1058.3" cy="97.3" r="2" fill="#d97706"/>
<circle cx="1140.0" cy="98.6" r="2" fill="#d97706"/>
<polyline points="80.0,355.0 90.2,319.0 110.6,311.0 131.1,306.2 151.5,300.2 171.9,297.7 192.3,293.1 212.8,291.2 233.2,280.9 253.6,268.0 274.0,269.6 314.9,263.6 355.7,246.5 396.6,206.8 478.3,192.0 560.0,183.2" stroke="#16a34a" class="sr" stroke-dasharray="4,2"/>
<polyline points="660.0,342.9 670.2,306.3 690.6,289.2 711.1,283.1 731.5,268.8 751.9,263.0 772.3,256.4 792.8,206.1 813.2,198.6 833.6,192.4 854.0,186.8 894.9,175.8 935.7,155.2 976.6,148.4 1058.3,140.4 1140.0,134.6" stroke="#16a34a" class="sr" stroke-dasharray="4,2"/>
<circle cx="80.0" cy="355.0" r="2" fill="#16a34a"/>
<circle cx="90.2" cy="319.0" r="2" fill="#16a34a"/>
<circle cx="110.6" cy="311.0" r="2" fill="#16a34a"/>
<circle cx="131.1" cy="306.2" r="2" fill="#16a34a"/>
<circle cx="151.5" cy="300.2" r="2" fill="#16a34a"/>
<circle cx="171.9" cy="297.7" r="2" fill="#16a34a"/>
<circle cx="192.3" cy="293.1" r="2" fill="#16a34a"/>
<circle cx="212.8" cy="291.2" r="2" fill="#16a34a"/>
<circle cx="233.2" cy="280.9" r="2" fill="#16a34a"/>
<circle cx="253.6" cy="268.0" r="2" fill="#16a34a"/>
<circle cx="274.0" cy="269.6" r="2" fill="#16a34a"/>
<circle cx="314.9" cy="263.6" r="2" fill="#16a34a"/>
<circle cx="355.7" cy="246.5" r="2" fill="#16a34a"/>
<circle cx="396.6" cy="206.8" r="2" fill="#16a34a"/>
<circle cx="478.3" cy="192.0" r="2" fill="#16a34a"/>
<circle cx="560.0" cy="183.2" r="2" fill="#16a34a"/>
<circle cx="660.0" cy="342.9" r="2" fill="#16a34a"/>
<circle cx="670.2" cy="306.3" r="2" fill="#16a34a"/>
<circle cx="690.6" cy="289.2" r="2" fill="#16a34a"/>
<circle cx="711.1" cy="283.1" r="2" fill="#16a34a"/>
<circle cx="731.5" cy="268.8" r="2" fill="#16a34a"/>
<circle cx="751.9" cy="263.0" r="2" fill="#16a34a"/>
<circle cx="772.3" cy="256.4" r="2" fill="#16a34a"/>
<circle cx="792.8" cy="206.1" r="2" fill="#16a34a"/>
<circle cx="813.2" cy="198.6" r="2" fill="#16a34a"/>
<circle cx="833.6" cy="192.4" r="2" fill="#16a34a"/>
<circle cx="854.0" cy="186.8" r="2" fill="#16a34a"/>
<circle cx="894.9" cy="175.8" r="2" fill="#16a34a"/>
<circle cx="935.7" cy="155.2" r="2" fill="#16a34a"/>
<circle cx="976.6" cy="148.4" r="2" fill="#16a34a"/>
<circle cx="1058.3" cy="140.4" r="2" fill="#16a34a"/>
<circle cx="1140.0" cy="134.6" r="2" fill="#16a34a"/>
<line x1="792.8" y1="75" x2="792.8" y2="425" stroke="#0891b2" stroke-width="1" stroke-dasharray="3,3" opacity="0.4"/>
<line x1="833.6" y1="75" x2="833.6" y2="425" stroke="#d97706" stroke-width="1" stroke-dasharray="3,3" opacity="0.4"/>
<line x1="935.7" y1="75" x2="935.7" y2="425" stroke="#16a34a" stroke-width="1" stroke-dasharray="3,3" opacity="0.4"/>
<text x="792.8" y="473" class="m an" text-anchor="middle" fill="#0891b2">0,8 GB: 14c</text>
<text x="848.6" y="485" class="m an" text-anchor="middle" fill="#d97706">16 GB: 18c</text>
<text x="935.7" y="473" class="m an" text-anchor="middle" fill="#16a34a">32 GB: 28c</text>
<line x1="380" y1="490" x2="400" y2="490" stroke="#0891b2" stroke-width="2.5"/>
<text x="406" y="494" class="m lg" fill="#0891b2">0 GB</text>
<line x1="500" y1="490" x2="520" y2="490" stroke="#dc2626" stroke-width="2.5"/>
<text x="526" y="494" class="m lg" fill="#dc2626">8 GB</text>
<line x1="620" y1="490" x2="640" y2="490" stroke="#d97706" stroke-width="2.5" stroke-dasharray="8,4"/>
<text x="646" y="494" class="m lg" fill="#d97706">16 GB</text>
<line x1="740" y1="490" x2="760" y2="490" stroke="#16a34a" stroke-width="2.5" stroke-dasharray="4,2"/>
<text x="766" y="494" class="m lg" fill="#16a34a">32 GB</text>
</svg>